<svg width="18" height="17" viewBox="0 0 18 17" fill="none" xmlns="http://www.w3.org/2000/svg">
<path d="M15.2417 15.2078L14.6667 15.7828C14.35 16.0745 13.95 16.2328 13.5167 16.2495C12.3583 16.2078 9.92501 15.5495 6.06668 11.6829C2.20834 7.82452 1.53333 5.36616 1.5 4.25783C1.51667 3.83283 1.675 3.42449 1.96666 3.10782L2.54167 2.53282L3.33334 1.74119C3.49168 1.57453 3.68333 1.44952 3.89166 1.36618C4.11666 1.28285 4.34167 1.25786 4.575 1.27453C4.8 1.2912 5.01666 1.3662 5.21666 1.48286C5.41666 1.59953 5.58332 1.75786 5.70832 1.94953L6.83333 3.52449C6.94166 3.70782 7.00834 3.90785 7.025 4.12451C7.04167 4.33285 7 4.54951 6.91667 4.74117L6.16667 6.16619C6.11667 6.27452 6.09168 6.39952 6.09168 6.52452C6.09168 6.64952 6.11667 6.76618 6.16667 6.88285C6.65834 7.89118 7.34166 8.79952 8.18332 9.54118C8.93332 10.3745 9.83333 11.0578 10.85 11.5578C10.9583 11.6078 11.075 11.6329 11.2083 11.6329C11.3417 11.6329 11.45 11.6078 11.5667 11.5578L13 10.8162C13.2 10.7245 13.4083 10.6912 13.625 10.6995C13.8417 10.7162 14.0417 10.7828 14.225 10.8912L15.8083 12.0078C16 12.1328 16.1667 12.2995 16.2833 12.4995C16.3917 12.6995 16.475 12.9162 16.4917 13.1412C16.5167 13.3662 16.4917 13.5995 16.4083 13.8162C16.325 14.0329 16.1917 14.2245 16.025 14.3828L15.2667 15.2078H15.2417Z" stroke="white" stroke-width="1.5" stroke-miterlimit="10"/>
</svg>
